<?xml version="1.0" encoding="UTF-8" standalone="no"?>
<svg viewBox="0 0 858 858" version="1.1" xmlns="http://www.w3.org/2000/svg" xmlns:xlink="http://www.w3.org/1999/xlink">
    <g id="Icons" stroke="none" stroke-width="1" fill="none" fill-rule="evenodd">
        <g id="github" fill="#FFFFFF">
            <path d="M219.852,683.48 C216.876,686.828 213.156,686.27 208.692,681.806 C203.856,677.714 203.112,674.18 206.46,671.204 C209.436,667.856 213.156,668.414 217.62,672.878 C222.084,676.97 222.828,680.504 219.852,683.48 L219.852,683.48 Z M196.416,649.442 C199.764,653.906 199.764,657.44 196.416,660.044 C193.44,662.276 190.278,660.974 186.93,656.138 C183.582,651.302 183.582,647.954 186.93,646.094 C190.278,643.49 193.44,644.606 196.416,649.442 L196.416,649.442 Z M162.378,615.962 C160.518,618.566 158.1,618.938 155.124,617.078 C151.404,615.218 150.102,612.986 151.218,610.382 C152.334,608.522 154.752,608.15 158.472,609.266 C162.192,611.126 163.494,613.358 162.378,615.962 L162.378,615.962 Z M179.676,634.934 C177.444,637.538 174.468,636.98 170.748,633.26 C167.4,629.168 167.028,626.192 169.632,624.332 C171.864,622.1 174.84,622.658 178.56,626.006 C181.908,630.098 182.28,633.074 179.676,634.934 L179.676,634.934 Z M251.658,697.43 C250.17,701.894 246.636,703.01 241.056,700.778 C234.732,699.29 232.314,696.5 233.802,692.408 C235.29,688.316 238.824,687.014 244.404,688.502 C250.356,690.362 252.774,693.338 251.658,697.43 L251.658,697.43 Z M286.812,700.22 C286.812,704.312 283.836,706.358 277.884,706.358 C271.56,707.102 268.398,705.056 268.398,700.22 C268.398,696.128 271.374,694.082 277.326,694.082 C283.65,693.338 286.812,695.384 286.812,700.22 L286.812,700.22 Z M319.176,694.64 C319.92,698.36 317.316,700.964 311.364,702.452 C305.412,703.94 302.064,702.452 301.32,697.988 C300.576,693.524 303.18,690.734 309.132,689.618 C315.084,688.874 318.432,690.548 319.176,694.64 L319.176,694.64 Z M857.088,161.192 L857.088,696.872 C857.088,741.14 841.371,778.991 809.937,810.425 C778.503,841.859 740.652,857.576 696.384,857.576 L571.392,857.576 C565.44,857.576 560.883,857.39 557.721,857.018 C554.559,856.646 550.932,855.716 546.84,854.228 C542.748,852.74 539.772,850.043 537.912,846.137 C536.052,842.231 535.122,837.116 535.122,830.792 L535.122,697.43 C535.122,661.346 525.45,634.934 506.106,618.194 C527.31,615.962 546.375,612.614 563.301,608.15 C580.227,603.686 597.711,596.432 615.753,586.388 C633.795,576.344 648.861,563.975 660.951,549.281 C673.041,534.587 682.899,515.057 690.525,490.691 C698.151,466.325 701.964,438.332 701.964,406.712 C701.964,361.7 687.27,323.384 657.882,291.764 C671.646,257.912 670.158,219.968 653.418,177.932 C643.002,174.584 627.936,176.63 608.22,184.07 C588.504,191.51 571.392,199.694 556.884,208.622 L535.68,222.014 C501.084,212.342 465.372,207.506 428.544,207.506 C391.716,207.506 356.004,212.342 321.408,222.014 C315.456,217.922 307.551,212.9 297.693,206.948 C287.835,200.996 272.304,193.835 251.1,185.465 C229.896,177.095 213.9,174.584 203.112,177.932 C186.744,219.968 185.442,257.912 199.206,291.764 C169.818,323.384 155.124,361.7 155.124,406.712 C155.124,438.332 158.937,466.232 166.563,490.412 C174.189,514.592 183.954,534.122 195.858,549.002 C207.762,563.882 222.735,576.344 240.777,586.388 C258.819,596.432 276.303,603.686 293.229,608.15 C310.155,612.614 329.22,615.962 350.424,618.194 C335.544,631.586 326.43,650.744 323.082,675.668 C315.27,679.388 306.9,682.178 297.972,684.038 C289.044,685.898 278.442,686.828 266.166,686.828 C253.89,686.828 241.707,682.829 229.617,674.831 C217.527,666.833 207.204,655.208 198.648,639.956 C191.58,628.052 182.559,618.38 171.585,610.94 C160.611,603.5 151.404,599.036 143.964,597.548 L132.804,595.874 C124.992,595.874 119.598,596.711 116.622,598.385 C113.646,600.059 112.716,602.198 113.832,604.802 C114.948,607.406 116.622,610.01 118.854,612.614 C121.086,615.218 123.504,617.45 126.108,619.31 L130.014,622.1 C138.198,625.82 146.289,632.888 154.287,643.304 C162.285,653.72 168.144,663.206 171.864,671.762 L177.444,684.596 C182.28,698.732 190.464,710.171 201.996,718.913 C213.528,727.655 225.99,733.235 239.382,735.653 C252.774,738.071 265.701,739.373 278.163,739.559 C290.625,739.745 300.948,739.094 309.132,737.606 L321.966,735.374 C321.966,749.51 322.059,768.668 322.245,792.848 C322.431,817.028 322.524,829.676 322.524,830.792 C322.524,838.976 320.478,845.207 316.386,849.485 C312.294,853.763 308.202,856.181 304.11,856.739 C300.018,857.297 293.88,857.576 285.696,857.576 L160.704,857.576 C116.436,857.576 78.585,841.859 47.151,810.425 C15.717,778.991 1.18423789e-14,741.14 7.10542736e-15,696.872 L7.10542736e-15,161.192 C7.10542736e-15,116.924 15.717,79.073 47.151,47.639 C78.585,16.205 116.436,0.488 160.704,0.488 L696.384,0.488 C740.652,0.488 778.503,16.205 809.937,47.639 C841.371,79.073 857.088,116.924 857.088,161.192 L857.088,161.192 Z" id="Shape"></path>
        </g>
    </g>
</svg>