<svg viewBox="0 0 858 858" version="1.1" xmlns="http://www.w3.org/2000/svg" xmlns:xlink="http://www.w3.org/1999/xlink">
    <g id="Icons" stroke="none" stroke-width="1" fill="none" fill-rule="evenodd">
        <g id="twitter" fill="#FFFFFF">
            <path d="M714.24,269.444 C693.408,278.744 670.902,285.068 646.722,288.416 C672.018,273.536 689.316,251.774 698.616,223.13 C674.436,237.266 649.512,246.752 623.844,251.588 C601.152,227.036 572.694,214.76 538.47,214.76 C506.106,214.76 478.485,226.199 455.607,249.077 C432.729,271.955 421.29,299.576 421.29,331.94 C421.29,342.728 422.22,351.656 424.08,358.724 C376.092,356.12 331.08,344.03 289.044,322.454 C247.008,300.878 211.296,272.048 181.908,235.964 C171.12,254.564 165.726,274.28 165.726,295.112 C165.726,337.52 182.652,370.07 216.504,392.762 C199.02,392.39 180.42,387.554 160.704,378.254 L160.704,379.37 C160.704,407.27 170.004,432.101 188.604,453.863 C207.204,475.625 230.082,489.11 257.238,494.318 C246.45,497.294 236.964,498.782 228.78,498.782 C223.944,498.782 216.69,498.038 207.018,496.55 C214.83,519.986 228.687,539.33 248.589,554.582 C268.491,569.834 291.09,577.646 316.386,578.018 C273.234,611.498 224.688,628.238 170.748,628.238 C161.076,628.238 151.776,627.68 142.848,626.564 C197.904,661.532 257.796,679.016 322.524,679.016 C364.188,679.016 403.248,672.413 439.704,659.207 C476.16,646.001 507.408,628.331 533.448,606.197 C559.488,584.063 581.901,558.581 600.687,529.751 C619.473,500.921 633.423,470.789 642.537,439.355 C651.651,407.921 656.208,376.58 656.208,345.332 C656.208,338.636 656.022,333.614 655.65,330.266 C679.086,313.526 698.616,293.252 714.24,269.444 L714.24,269.444 Z M857.088,161.192 L857.088,696.872 C857.088,741.14 841.371,778.991 809.937,810.425 C778.503,841.859 740.652,857.576 696.384,857.576 L160.704,857.576 C116.436,857.576 78.585,841.859 47.151,810.425 C15.717,778.991 6.86857978e-14,741.14 6.39488462e-14,696.872 L6.39488462e-14,161.192 C6.39488462e-14,116.924 15.717,79.073 47.151,47.639 C78.585,16.205 116.436,0.488 160.704,0.488 L696.384,0.488 C740.652,0.488 778.503,16.205 809.937,47.639 C841.371,79.073 857.088,116.924 857.088,161.192 L857.088,161.192 Z" id="Shape"></path>
        </g>
    </g>
</svg>