<svg width="330px" height="49px" viewBox="0 0 330 49" version="1.1" xmlns="http://www.w3.org/2000/svg" xmlns:xlink="http://www.w3.org/1999/xlink">
    <!-- Generator: Sketch 3.7 (28169) - http://www.bohemiancoding.com/sketch -->
    <title>Hell Frente</title>
    <desc>Created with Sketch.</desc>
    <defs></defs>
    <g id="Page-1" stroke="none" stroke-width="1" fill="none" fill-rule="evenodd">
        <g id="Hell-Frente" fill="#FFFFFF">
            <polygon id="Shape" points="5.32907052e-15 0.3 5.32907052e-15 22.3 5.32907052e-15 22.3 7.15201465 38 9.87179487 32 14.3040293 48.5 19.6428571 28.9 23.7728938 38 28.8095238 26.9 33.8461538 38 36.5659341 32 41.0989011 48.5 46.3369963 28.9 50.5677656 38 54.2948718 29.6 58.1227106 38 59.532967 34.8 61.043956 38 64.5695971 30.1 68.1959707 38 70.9157509 32 75.4487179 48.5 80.6868132 28.9 84.9175824 38 86.3278388 34.8 87.7380952 38 90.4578755 32 94.9908425 48.5 100.32967 28.9 104.459707 38 109.496337 26.9 114.532967 38 117.252747 32 121.684982 48.5 127.02381 28.9 131.153846 38 134.981685 29.6 138.809524 38 140.21978 34.8 141.630037 38 145.25641 30.1 148.882784 38 151.602564 32 156.034799 48.5 161.373626 28.9 165.503663 38 168.223443 32 172.75641 48.5 178.095238 28.9 182.225275 38 187.261905 26.9 192.298535 38 195.018315 32 199.450549 48.5 204.789377 28.9 208.919414 38 212.747253 29.6 216.575092 38 217.985348 34.8 219.395604 38 223.021978 30.1 226.648352 38 229.368132 32 233.800366 48.5 239.139194 28.9 243.269231 38 244.78022 34.8 246.190476 38 248.910256 32 253.342491 48.5 258.681319 28.9 262.811355 38 267.847985 26.9 272.884615 38 275.705128 32 280.137363 48.5 285.47619 28.9 289.606227 38 293.434066 29.6 297.161172 38 298.672161 34.8 300.082418 38 303.708791 30.1 307.234432 38 310.054945 32 314.487179 48.5 319.423077 30.3 322.948718 38 330 22.3 330 0.3"></polygon>
        </g>
    </g>
</svg>