<svg width="330px" height="99px" viewBox="0 0 330 99" version="1.1" xmlns="http://www.w3.org/2000/svg" xmlns:xlink="http://www.w3.org/1999/xlink">
    <!-- Generator: Sketch 3.7 (28169) - http://www.bohemiancoding.com/sketch -->
    <title>Nuvem Frente</title>
    <desc>Created with Sketch.</desc>
    <defs></defs>
    <g id="Page-1" stroke="none" stroke-width="1" fill="none" fill-rule="evenodd">
        <g id="Nuvem-Frente" fill="#FFFFFF">
            <path d="M329.895899,23.4 C329.895899,10.5 318.9653,0 305.536278,0 C295.85489,0 287.422713,5.5 283.466877,13.4 C283.154574,13.4 282.842271,13.3 282.529968,13.3 C278.574132,13.3 275.347003,16.4 275.347003,20.2 C275.347003,20.8 275.451104,21.5 275.659306,22 C273.473186,22.5 271.599369,23.6 270.141956,25.1 C267.955836,24 265.457413,23.4 262.85489,23.4 C255.776025,23.4 249.842271,27.9 247.968454,34 C246.511041,32.8 244.637224,32.1 242.555205,32.1 C238.807571,32.1 235.684543,34.4 234.539432,37.6 C232.873817,37 231,36.6 229.126183,36.6 C221.839117,36.6 215.697161,41.5 214.031546,48 C212.990536,47.4 211.741325,47.1 210.388013,47.1 C207.785489,47.1 205.495268,48.5 204.246057,50.5 C202.788644,49.1 200.706625,48.3 198.520505,48.3 C194.66877,48.3 191.44164,50.8 190.400631,54.1 C189.047319,53.3 187.485804,52.8 185.820189,52.8 C183.529968,52.8 181.55205,53.7 179.990536,55 C177.596215,53.6 174.785489,52.8 171.870662,52.8 C167.914826,52.8 164.375394,54.2 161.564669,56.5 C159.48265,54.4 156.567823,53.1 153.340694,53.1 C151.77918,53.1 150.217666,53.4 148.864353,54 C146.782334,51.2 143.451104,49.4 139.599369,49.4 C137.205047,49.4 135.018927,50.1 133.249211,51.3 C129.501577,46.5 123.567823,43.4 116.905363,43.4 L116.905363,43.4 C116.280757,40.2 113.365931,37.8 109.826498,37.8 C108.264984,37.8 106.807571,38.3 105.55836,39.1 C102.747634,36.2 98.6876972,34.4 94.2113565,34.4 C93.170347,34.4 92.2334385,34.5 91.192429,34.7 C90.9842271,34.6 90.7760252,34.5 90.5678233,34.4 C88.7981073,30.6 84.8422713,28 80.1577287,28 C77.8675079,28 75.681388,28.7 73.807571,29.8 C73.0788644,26.7 70.2681388,24.4 66.8328076,24.4 C66.2082019,24.4 65.5835962,24.5 64.9589905,24.6 C62.3564669,19.9 57.1514196,16.8 51.3217666,16.8 C49.8643533,16.8 48.511041,17 47.1577287,17.4 C43.8264984,8.6 34.873817,2.2 24.3596215,2.2 C10.9305994,2.2 0,12.7 0,25.6 L0,98.6 L63.6056782,98.6 L64.5425868,98.6 L118.883281,98.6 L120.132492,98.6 L171.974763,98.6 L175.305994,98.6 L221.735016,98.6 L228.397476,98.6 L272.328076,98.6 L278.26183,98.6 L330,98.6 L330,24.3 L330,24.3 C329.895899,24 329.895899,23.7 329.895899,23.4 L329.895899,23.4 Z" id="Shape"></path>
        </g>
    </g>
</svg>