<svg width="330px" height="87px" viewBox="0 0 330 87" version="1.1" xmlns="http://www.w3.org/2000/svg" xmlns:xlink="http://www.w3.org/1999/xlink">
    <!-- Generator: Sketch 3.7 (28169) - http://www.bohemiancoding.com/sketch -->
    <title>Nuvem fundo</title>
    <desc>Created with Sketch.</desc>
    <defs></defs>
    <g id="Page-1" stroke="none" stroke-width="1" fill="none" fill-rule="evenodd" opacity="0.749183769">
        <g id="Nuvem-fundo" fill="#FFFFFF">
            <path d="M330,33.5000015 C330,21.9000015 322.054252,12.1000015 311.292289,9.30000153 C311.292289,9.00000153 311.392868,8.60000153 311.392868,8.30000153 C311.392868,4.20000153 308.073758,0.900001526 303.950015,0.900001526 C301.334959,0.900001526 299.122219,2.20000153 297.714112,4.20000153 C297.311795,4.20000153 296.909479,4.10000153 296.507162,4.10000153 C291.880524,4.10000153 287.857361,6.80000153 285.946358,10.6000015 C285.544041,10.6000015 285.242304,10.5000015 284.839988,10.5000015 C277.698872,10.5000015 271.664127,15.2000015 269.551966,21.6000015 C268.244438,20.8000015 266.735751,20.4000015 265.126486,20.4000015 C260.801585,20.4000015 257.281317,23.5000015 256.577263,27.6000015 C254.465102,26.9000015 252.252362,26.6000015 250.039622,26.6000015 C246.92167,26.6000015 244.004877,27.3000015 241.38982,28.5000015 C239.17708,27.3000015 236.562024,26.6000015 233.846388,26.6000015 C226.302956,26.6000015 219.966474,31.8000015 218.256629,38.8000015 C217.150259,38.2000015 215.842731,37.8000015 214.535203,37.8000015 C210.41146,37.8000015 207.09235,41.1000015 207.09235,45.2000015 C203.270344,45.2000015 200.051813,47.6000015 198.945443,51.0000015 C196.229808,49.0000015 192.910698,47.8000015 189.289851,47.8000015 C186.775373,47.8000015 184.462054,48.4000015 182.349893,49.4000015 C180.740628,47.8000015 178.527888,46.8000015 176.11399,46.8000015 C172.996038,46.8000015 170.280402,48.4000015 168.671137,50.9000015 C166.558976,47.6000015 162.938129,45.3000015 158.613228,45.3000015 C155.495276,45.3000015 152.77964,46.5000015 150.667479,48.4000015 C148.555319,47.3000015 146.241999,46.7000015 143.828101,46.7000015 C141.71594,46.7000015 139.704358,47.1000015 137.893935,47.9000015 C134.977141,39.7000015 127.232551,33.9000015 117.979275,33.9000015 C115.766535,33.9000015 113.654374,34.2000015 111.743371,34.8000015 C108.826577,31.0000015 104.199939,28.5000015 98.9698263,28.5000015 C97.7628772,28.5000015 96.5559281,28.6000015 95.4495581,28.9000015 C94.1420299,25.8000015 91.024078,23.6000015 87.4032307,23.6000015 C85.492228,23.6000015 83.6818043,24.2000015 82.273697,25.3000015 C80.1615361,22.6000015 76.8424261,20.9000015 73.1209997,20.9000015 C70.7071015,20.9000015 68.3937824,21.7000015 66.4827796,22.9000015 C65.4769887,15.0000015 58.7381896,8.80000153 50.4907041,8.80000153 C48.277964,8.80000153 46.065224,9.30000153 44.1542213,10.1000015 C39.5275831,4.90000153 32.7887839,1.60000153 25.245352,1.60000153 C11.3654374,1.60000153 0,12.8000015 0,26.7000015 L0,86.3000015 L82.8771716,86.3000015 L83.3800671,86.3000015 L165.251448,86.3000015 L166.257239,86.3000015 L245.513563,86.3000015 L248.631515,86.3000015 L329.899421,86.3000015 L329.899421,35.7000015 C330,35.0000015 330,34.2000015 330,33.5000015 L330,33.5000015 Z" id="Shape"></path>
        </g>
    </g>
</svg>