<?xml version="1.0" encoding="UTF-8" standalone="no"?>
<svg viewBox="0 0 1000 858" version="1.1" xmlns="http://www.w3.org/2000/svg" xmlns:xlink="http://www.w3.org/1999/xlink">
    <g id="Icons" stroke="none" stroke-width="1" fill="none" fill-rule="evenodd">
        <g id="link" fill="#000000">
            <path d="M785.664,517.888 L785.664,696.448 C785.664,740.716 769.947,778.567 738.513,810.001 C707.079,841.435 669.228,857.152 624.96,857.152 L160.704,857.152 C116.436,857.152 78.585,841.435 47.151,810.001 C15.717,778.567 6.86857978e-14,740.716 6.39488462e-14,696.448 L6.39488462e-14,232.192 C6.39488462e-14,187.924 15.717,150.073 47.151,118.639 C78.585,87.205 116.436,71.488 160.704,71.488 L553.536,71.488 C558.744,71.488 563.022,73.162 566.37,76.51 C569.718,79.858 571.392,84.136 571.392,89.344 L571.392,125.056 C571.392,130.264 569.718,134.542 566.37,137.89 C563.022,141.238 558.744,142.912 553.536,142.912 L160.704,142.912 C136.152,142.912 115.134,151.654 97.65,169.138 C80.166,186.622 71.424,207.64 71.424,232.192 L71.424,696.448 C71.424,721 80.166,742.018 97.65,759.502 C115.134,776.986 136.152,785.728 160.704,785.728 L624.96,785.728 C649.512,785.728 670.53,776.986 688.014,759.502 C705.498,742.018 714.24,721 714.24,696.448 L714.24,517.888 C714.24,512.68 715.914,508.402 719.262,505.054 C722.61,501.706 726.888,500.032 732.096,500.032 L767.808,500.032 C773.016,500.032 777.294,501.706 780.642,505.054 C783.99,508.402 785.664,512.68 785.664,517.888 L785.664,517.888 Z M999.936,35.776 L999.936,321.472 C999.936,331.144 996.402,339.514 989.334,346.582 C982.266,353.65 973.896,357.184 964.224,357.184 C954.552,357.184 946.182,353.65 939.114,346.582 L840.906,248.374 L477.09,612.19 C473.37,615.91 469.092,617.77 464.256,617.77 C459.42,617.77 455.142,615.91 451.422,612.19 L387.81,548.578 C384.09,544.858 382.23,540.58 382.23,535.744 C382.23,530.908 384.09,526.63 387.81,522.91 L751.626,159.094 L653.418,60.886 C646.35,53.818 642.816,45.448 642.816,35.776 C642.816,26.104 646.35,17.734 653.418,10.666 C660.486,3.598 668.856,0.064 678.528,0.064 L964.224,0.064 C973.896,0.064 982.266,3.598 989.334,10.666 C996.402,17.734 999.936,26.104 999.936,35.776 L999.936,35.776 Z" id="Shape"></path>
        </g>
    </g>
</svg>