<svg id="InternetSemLimites" xmlns="http://www.w3.org/2000/svg" viewBox="0 0 2000 2000"><style>.st0,.st1{fill-rule:evenodd;clip-rule:evenodd}.st1{fill:#2f69c8}</style><switch><g><g id="Logotipo_1_"><path id="XMLID_27_" class="st0" d="M942.2 521.8c-8 0-15.2 6.2-16.2 18.2h30c.1-12-5.3-18.2-13.8-18.2z"/><path id="XMLID_26_" class="st0" d="M888 620.8c-8 0-15.2 6.2-16.2 18.2h30c.1-12-5.3-18.2-13.8-18.2z"/><path id="XMLID_25_" class="st0" d="M1036.8 719.8c-8 0-15.2 6.2-16.2 18.2h30c0-12-5.4-18.2-13.8-18.2z"/><path id="XMLID_24_" class="st0" d="M1072.8 521.8c-8 0-15.2 6.2-16.2 18.2h30c0-12-5.4-18.2-13.8-18.2z"/><path id="XMLID_1_" class="st0" d="M778 445v384h256c70.7 0 128-57.3 128-128V445H778zm294.7 72.8c11.2 0 18 7.9 18 21.7 0 1.2 0 2.5-.2 3.5h-33.9c.2 12 7.2 20.4 17.7 20.4 5.1 0 9.1-1.6 12.6-4.2l1.8 3.3c-3.7 2.3-7.9 4.6-14.8 4.6-12.1 0-21.8-9.2-21.8-24.6.1-15.3 10.1-24.7 20.6-24.7zM1004 519h3.7l.4 7h.3c4.8-5 9.8-8.3 16.3-8.3 9.7 0 14.3 6 14.3 18.1V566h-5v-29.6c0-10-3.1-14.7-10.7-14.7-5.6 0-9.3 2.9-15.3 8.8V566h-4v-47zm-61.9-1.2c11.2 0 18 7.9 18 21.7 0 1.2 0 2.5-.2 3.5H926c.2 12 7.2 20.4 17.7 20.4 5.1 0 9.1-1.6 12.6-4.2l1.8 3.3c-3.7 2.3-7.9 4.6-14.8 4.6-12.1 0-21.8-9.2-21.8-24.6.2-15.3 10.2-24.7 20.6-24.7zm-52.1 1.5l7.3-.6.4-13.8h3.3v14h14v4h-14v30.4c0 6 1.7 10 8.2 10 1.8 0 4.3-.7 6-1.5l1.2 3.5c-2.7 1-5.7 1.8-7.6 1.8-9.1 0-11.8-5.8-11.8-14.2v-30h-7v-3.6zM821 501h5v65h-5v-65zm34 263h-34v-65h5v61h29v4zm-17-97.8c-9.4 0-16.7-4-21.8-9.7l2.8-3.1c4.7 5.3 11.5 8.7 19 8.7 9.8 0 16.1-5.3 16.1-12.9 0-8-5.3-10.7-11.7-13.5l-9.8-4.4c-5.6-2.5-13-6.5-13-16.1 0-9.3 8-15.9 18.7-15.9 7.8 0 14.1 3.5 18 7.7l-2.6 3c-3.7-4-8.9-6.7-15.4-6.7-8.5 0-14.2 4.5-14.2 11.6 0 7.4 6.5 10.3 11.2 12.4l9.8 4.3c7.2 3.2 13.5 7.3 13.5 17.2s-8.1 17.4-20.6 17.4zm10-135.7V566h-4v-47h3.6l.4 7h.3c4.8-5 9.9-8.3 16.4-8.3 9.7 0 14.4 6 14.4 18.1V566h-5v-29.6c0-10-3.1-14.7-10.7-14.7-5.7 0-9.4 2.9-15.4 8.8zM870 764h-4v-47h4v47zm-1.7-58.4c-2.2 0-3.9-1.6-3.9-3.8 0-2.5 1.8-3.9 3.9-3.9 2.2 0 3.9 1.5 3.9 3.9.1 2.2-1.7 3.8-3.9 3.8zm-.8-64c0-15.4 10-24.8 20.5-24.8 11.2 0 18 7.9 18 21.7 0 1.2 0 2.5-.2 3.5h-33.9c.2 12 7.2 20.4 17.7 20.4 5.1 0 9.1-1.6 12.6-4.2l1.8 3.3c-3.7 2.3-7.9 4.6-14.8 4.6-12 .1-21.7-9.1-21.7-24.5zM951 764h-5v-29.6c0-10-3-14.7-10.2-14.7-4.4 0-8.8 2.9-13.8 8.8V764h-4v-29.6c0-10-3.5-14.7-10.7-14.7-4.2 0-9.3 2.9-14.3 8.8V764h-4v-47h3.3l.4 7h.3c4.2-5 9.6-8.3 14.8-8.3 7.5 0 11.4 3.9 13 9.7 5.4-5.9 10.7-9.6 16-9.6 9.4 0 14.2 5.9 14.2 18.1V764zm21 0h-4v-47h4v47zm-1.6-58.4c-2.2 0-3.9-1.6-3.9-3.8 0-2.5 1.8-3.9 3.9-3.9 2.2 0 3.9 1.5 3.9 3.9 0 2.2-1.8 3.8-3.9 3.8zM981 665h-4v-29.6c0-10-3.5-14.7-10.7-14.7-4.4 0-9.3 2.9-14.3 8.8V665h-4v-29.6c0-10-3.5-14.7-10.7-14.7-4.2 0-9.3 2.9-14.3 8.8V665h-4v-47h3.4l.4 7h.3c4.2-5 9.6-8.3 14.8-8.3 7.5 0 11.4 3.9 13 9.7 5.4-5.9 10.6-9.6 15.9-9.6 9.4 0 14.1 5.9 14.1 18.1V665zm-4-131v32h-4v-47h3.6l.4 9h.3c3.1-6 7.7-10.1 13.3-10.1 1.8 0 3.1.1 4.7.9l-1 3.9c-1.6-.6-2.6-.8-4.4-.8-4.2 0-8.9 3.2-12.9 12.1zm26.6 231.2c-9.1 0-11.6-5.8-11.6-14.2v-30h-8v-3.7l7.6-.6.7-13.8h3.7v14h14v4h-14v30.4c0 6 1.5 10 8 10 1.8 0 4.2-.7 5.9-1.5l1.3 3.5c-2.8 1.1-5.7 1.9-7.6 1.9zm51-24.2h-33.9c.2 12 7.2 20.4 17.7 20.4 5.1 0 9.1-1.6 12.6-4.2l1.8 3.3c-3.7 2.3-7.9 4.6-14.8 4.6-12.1 0-21.8-9.2-21.8-24.6 0-15.4 10-24.8 20.5-24.8 11.2 0 18 7.9 18 21.7 0 1.3 0 2.6-.1 3.6zm24.3 24.2c-7 0-13-2.9-17.2-6.5l2.5-3.2c4 3.3 8.2 6 15 6 7.4 0 11.2-4.3 11.2-9.3 0-5.9-6.1-8.4-11.5-10.4-7.2-2.5-15-5.4-15-13.4 0-6.9 5.4-12.5 15.2-12.5 5 0 10 2.1 13.4 4.9l-2.4 3c-3.1-2.4-6.5-4.2-11.3-4.2-7.3 0-10.6 4.2-10.6 8.5 0 5.2 5.5 7.4 11.1 9.5 7.4 2.7 15.4 5.2 15.4 14.4 0 7-5.7 13.2-15.8 13.2zm14.7-98.2c-13.4 0-28.1-11.6-40-22-15.9-13.9-23.3-19.1-33.1-19.1-8.6 0-15.6 7-15.6 15.6s7 15.6 15.6 15.6c8.7 0 13.3-2.4 25.9-12.7l7.5 6.5c-11 9-21.7 16.2-33.4 16.2-14 0-25.4-11.4-25.4-25.5s11.4-25.5 25.4-25.5c13.4 0 28 11.9 40 22 16 13.5 23.3 19.1 33.1 19.1 8.6 0 15.6-7 15.6-15.6s-7-15.6-15.6-15.6c-8.7 0-13.3 2.3-25.9 12.7l-7.6-6.3c11-9 21.7-16.2 33.4-16.2 14 0 25.4 11.4 25.4 25.5.1 13.9-11.3 25.3-25.3 25.3zm21.4-99.8c-9.1 0-12-5.8-12-14.2v-30h-7v-3.7l7.5-.6.6-13.8h3.9v14h13v4h-13v30.4c0 6 1.4 10 7.9 10 1.8 0 4.2-.7 5.8-1.5l1 3.5c-2.7 1.1-5.8 1.9-7.7 1.9z"/></g><g id="Logotipo"><path id="XMLID_30_" class="st1" d="M942.2 1121.8c-8 0-15.2 6.2-16.2 18.2h30c.1-12-5.3-18.2-13.8-18.2z"/><path id="XMLID_31_" class="st1" d="M888 1220.8c-8 0-15.2 6.2-16.2 18.2h30c.1-12-5.3-18.2-13.8-18.2z"/><path id="XMLID_32_" class="st1" d="M1036.8 1319.8c-8 0-15.2 6.2-16.2 18.2h30c0-12-5.4-18.2-13.8-18.2z"/><path id="XMLID_33_" class="st1" d="M1072.8 1121.8c-8 0-15.2 6.2-16.2 18.2h30c0-12-5.4-18.2-13.8-18.2z"/><path id="XMLID_36_" class="st1" d="M778 1045v384h256c70.7 0 128-57.3 128-128v-256H778zm294.7 72.8c11.2 0 18 7.9 18 21.7 0 1.2 0 2.5-.2 3.5h-33.9c.2 12 7.2 20.4 17.7 20.4 5.1 0 9.1-1.6 12.6-4.2l1.8 3.3c-3.7 2.3-7.9 4.6-14.8 4.6-12.1 0-21.8-9.2-21.8-24.6.1-15.3 10.1-24.7 20.6-24.7zm-68.7 1.2h3.7l.4 7h.3c4.8-5 9.8-8.3 16.3-8.3 9.7 0 14.3 6 14.3 18.1v30.2h-5v-29.6c0-10-3.1-14.7-10.7-14.7-5.6 0-9.3 2.9-15.3 8.8v35.5h-4v-47zm-61.9-1.2c11.2 0 18 7.9 18 21.7 0 1.2 0 2.5-.2 3.5H926c.2 12 7.2 20.4 17.7 20.4 5.1 0 9.1-1.6 12.6-4.2l1.8 3.3c-3.7 2.3-7.9 4.6-14.8 4.6-12.1 0-21.8-9.2-21.8-24.6.2-15.3 10.2-24.7 20.6-24.7zm-52.1 1.5l7.3-.6.4-13.8h3.3v14h14v4h-14v30.4c0 6 1.7 10 8.2 10 1.8 0 4.3-.7 6-1.5l1.2 3.5c-2.7 1-5.7 1.8-7.6 1.8-9.1 0-11.8-5.8-11.8-14.2v-30h-7v-3.6zm-69-18.3h5v65h-5v-65zm34 263h-34v-65h5v61h29v4zm-17-97.8c-9.4 0-16.7-4-21.8-9.7l2.8-3.1c4.7 5.3 11.5 8.7 19 8.7 9.8 0 16.1-5.3 16.1-12.9 0-8-5.3-10.7-11.7-13.5l-9.8-4.4c-5.6-2.5-13-6.5-13-16.1 0-9.3 8-15.9 18.7-15.9 7.8 0 14.1 3.5 18 7.7l-2.6 3c-3.7-4-8.9-6.7-15.4-6.7-8.5 0-14.2 4.5-14.2 11.6 0 7.4 6.5 10.3 11.2 12.4l9.8 4.3c7.2 3.2 13.5 7.3 13.5 17.2s-8.1 17.4-20.6 17.4zm10-135.7v35.5h-4v-47h3.6l.4 7h.3c4.8-5 9.9-8.3 16.4-8.3 9.7 0 14.4 6 14.4 18.1v30.2h-5v-29.6c0-10-3.1-14.7-10.7-14.7-5.7 0-9.4 2.9-15.4 8.8zm22 233.5h-4v-47h4v47zm-1.7-58.4c-2.2 0-3.9-1.6-3.9-3.8 0-2.5 1.8-3.9 3.9-3.9 2.2 0 3.9 1.5 3.9 3.9.1 2.2-1.7 3.8-3.9 3.8zm-.8-64c0-15.4 10-24.8 20.5-24.8 11.2 0 18 7.9 18 21.7 0 1.2 0 2.5-.2 3.5h-33.9c.2 12 7.2 20.4 17.7 20.4 5.1 0 9.1-1.6 12.6-4.2l1.8 3.3c-3.7 2.3-7.9 4.6-14.8 4.6-12 .1-21.7-9.1-21.7-24.5zM951 1364h-5v-29.6c0-10-3-14.7-10.2-14.7-4.4 0-8.8 2.9-13.8 8.8v35.5h-4v-29.6c0-10-3.5-14.7-10.7-14.7-4.2 0-9.3 2.9-14.3 8.8v35.5h-4v-47h3.3l.4 7h.3c4.2-5 9.6-8.3 14.8-8.3 7.5 0 11.4 3.9 13 9.7 5.4-5.9 10.7-9.6 16-9.6 9.4 0 14.2 5.9 14.2 18.1v30.1zm21 0h-4v-47h4v47zm-1.6-58.4c-2.2 0-3.9-1.6-3.9-3.8 0-2.5 1.8-3.9 3.9-3.9 2.2 0 3.9 1.5 3.9 3.9 0 2.2-1.8 3.8-3.9 3.8zM981 1265h-4v-29.6c0-10-3.5-14.7-10.7-14.7-4.4 0-9.3 2.9-14.3 8.8v35.5h-4v-29.6c0-10-3.5-14.7-10.7-14.7-4.2 0-9.3 2.9-14.3 8.8v35.5h-4v-47h3.4l.4 7h.3c4.2-5 9.6-8.3 14.8-8.3 7.5 0 11.4 3.9 13 9.7 5.4-5.9 10.6-9.6 15.9-9.6 9.4 0 14.1 5.9 14.1 18.1v30.1zm-4-131v32h-4v-47h3.6l.4 9h.3c3.1-6 7.7-10.1 13.3-10.1 1.8 0 3.1.1 4.7.9l-1 3.9c-1.6-.6-2.6-.8-4.4-.8-4.2 0-8.9 3.2-12.9 12.1zm26.6 231.2c-9.1 0-11.6-5.8-11.6-14.2v-30h-8v-3.7l7.6-.6.7-13.8h3.7v14h14v4h-14v30.4c0 6 1.5 10 8 10 1.8 0 4.2-.7 5.9-1.5l1.3 3.5c-2.8 1.1-5.7 1.9-7.6 1.9zm51-24.2h-33.9c.2 12 7.2 20.4 17.7 20.4 5.1 0 9.1-1.6 12.6-4.2l1.8 3.3c-3.7 2.3-7.9 4.6-14.8 4.6-12.1 0-21.8-9.2-21.8-24.6 0-15.4 10-24.8 20.5-24.8 11.2 0 18 7.9 18 21.7 0 1.3 0 2.6-.1 3.6zm24.3 24.2c-7 0-13-2.9-17.2-6.5l2.5-3.2c4 3.3 8.2 6 15 6 7.4 0 11.2-4.3 11.2-9.3 0-5.9-6.1-8.4-11.5-10.4-7.2-2.5-15-5.4-15-13.4 0-6.9 5.4-12.5 15.2-12.5 5 0 10 2.1 13.4 4.9l-2.4 3c-3.1-2.4-6.5-4.2-11.3-4.2-7.3 0-10.6 4.2-10.6 8.5 0 5.2 5.5 7.4 11.1 9.5 7.4 2.7 15.4 5.2 15.4 14.4 0 7-5.7 13.2-15.8 13.2zm14.7-98.2c-13.4 0-28.1-11.6-40-22-15.9-13.9-23.3-19.1-33.1-19.1-8.6 0-15.6 7-15.6 15.6s7 15.6 15.6 15.6c8.7 0 13.3-2.4 25.9-12.7l7.5 6.5c-11 9-21.7 16.2-33.4 16.2-14 0-25.4-11.4-25.4-25.5s11.4-25.5 25.4-25.5c13.4 0 28 11.9 40 22 16 13.5 23.3 19.1 33.1 19.1 8.6 0 15.6-7 15.6-15.6s-7-15.6-15.6-15.6c-8.7 0-13.3 2.3-25.9 12.7l-7.6-6.3c11-9 21.7-16.2 33.4-16.2 14 0 25.4 11.4 25.4 25.5.1 13.9-11.3 25.3-25.3 25.3zm21.4-99.8c-9.1 0-12-5.8-12-14.2v-30h-7v-3.7l7.5-.6.6-13.8h3.9v14h13v4h-13v30.4c0 6 1.4 10 7.9 10 1.8 0 4.2-.7 5.8-1.5l1 3.5c-2.7 1.1-5.8 1.9-7.7 1.9z"/></g></g></switch></svg>